<?xml version="1.0" standalone="no"?>
<!DOCTYPE svg PUBLIC "-//W3C//DTD SVG 20010904//EN"
 "http://www.w3.org/TR/2001/REC-SVG-20010904/DTD/svg10.dtd">
<svg version="1.0" xmlns="http://www.w3.org/2000/svg"
 width="512.000000pt" height="512.000000pt" viewBox="0 0 512.000000 512.000000"
 preserveAspectRatio="xMidYMid meet">

<g transform="translate(0.000000,512.000000) scale(0.100000,-0.100000)"
fill="#000000" stroke="none">
<path d="M2423 5092 c-182 -65 -295 -223 -297 -416 l-1 -79 -566 -324 -567
-323 -52 34 c-74 49 -159 70 -264 64 -72 -4 -96 -10 -159 -41 -217 -107 -305
-361 -201 -575 35 -72 135 -172 197 -198 l47 -19 0 -652 0 -653 -52 -26 c-69
-35 -158 -125 -192 -196 -105 -216 -11 -477 211 -580 127 -60 297 -48 413 28
l52 34 567 -323 566 -324 1 -84 c4 -176 91 -312 254 -392 61 -30 70 -32 180
-32 110 0 119 2 180 32 163 80 250 216 254 392 l1 84 566 324 567 323 52 -34
c74 -49 159 -70 264 -64 72 4 96 10 159 41 217 107 305 361 201 575 -34 71
-123 161 -192 196 l-52 26 0 650 0 650 52 26 c69 35 158 125 192 196 104 214
16 468 -201 575 -63 31 -87 37 -159 41 -105 6 -190 -15 -264 -64 l-52 -34
-567 323 -566 324 -1 84 c-4 176 -91 312 -253 392 -58 28 -76 32 -165 35 -79
2 -113 -2 -153 -16z m232 -303 c102 -90 42 -249 -95 -249 -137 0 -197 159 -95
249 31 27 43 31 95 31 52 0 64 -4 95 -31z m-787 -1012 c-156 -268 -286 -487
-289 -487 -3 0 -102 55 -220 123 l-214 123 -2 85 -3 84 503 286 c276 158 503
283 505 279 1 -4 -125 -226 -280 -493z m1665 183 l447 -255 -3 -85 -2 -84
-213 -123 c-117 -68 -216 -123 -220 -123 -8 0 -565 956 -570 978 -3 9 17 3 55
-19 33 -19 260 -149 506 -289z m-578 -242 c171 -292 316 -541 322 -554 12 -21
5 -26 -203 -145 -215 -122 -217 -123 -243 -106 -65 41 -151 77 -209 86 -105
17 -217 -12 -333 -86 -26 -17 -28 -16 -243 106 -208 119 -215 124 -203 145 6
13 151 262 322 554 l310 532 85 0 85 0 310 -532z m-2168 22 c88 -53 83 -198
-8 -246 -46 -24 -131 -15 -165 17 -75 70 -70 176 11 229 40 27 119 27 162 0z
m3701 4 c86 -51 95 -161 18 -233 -34 -32 -119 -41 -165 -17 -91 48 -96 193 -8
246 39 24 118 26 155 4z m-3281 -575 c117 -67 216 -126 219 -131 5 -9 -535
-948 -562 -978 -12 -12 -14 74 -14 568 l0 582 48 24 c26 13 56 31 67 40 11 8
22 16 25 16 2 0 100 -55 217 -121z m2951 102 c15 -10 46 -28 70 -40 l42 -21 0
-582 c0 -489 -2 -580 -13 -568 -8 8 -139 230 -292 493 -194 334 -275 481 -267
489 9 9 423 248 430 248 2 0 16 -8 30 -19z m-2248 -504 l215 -123 0 -84 0 -84
-504 -288 c-277 -159 -506 -287 -507 -285 -5 5 568 987 575 987 3 0 103 -55
221 -123z m1815 -371 c157 -269 283 -491 281 -493 -2 -2 -230 126 -507 285
l-504 289 0 83 0 82 215 124 c118 68 218 123 223 121 4 -1 135 -222 292 -491z
m-1086 295 c64 -45 86 -136 47 -195 -67 -104 -235 -81 -266 36 -35 127 113
234 219 159z m-271 -503 c84 -42 87 -43 192 -43 106 0 107 0 195 44 65 32 93
41 104 34 9 -5 235 -135 504 -288 268 -153 487 -282 487 -287 0 -4 -580 -8
-1290 -8 -710 0 -1290 4 -1290 8 0 8 987 580 1003 581 5 1 48 -18 95 -41z
m-1581 -568 c87 -52 83 -198 -6 -245 -39 -20 -116 -19 -151 2 -35 21 -70 81
-70 122 0 51 44 117 90 134 35 13 106 6 137 -13z m3719 -11 c77 -72 69 -182
-18 -233 -33 -20 -110 -21 -149 -1 -89 47 -93 192 -6 246 46 29 136 23 173
-12z m-662 -267 c-12 -11 -992 -572 -998 -572 -3 0 -26 14 -51 31 -135 91
-335 91 -471 -1 -48 -32 -49 -32 -79 -15 -16 9 -239 137 -495 283 -256 146
-469 269 -474 274 -6 4 572 8 1284 8 712 0 1290 -4 1284 -8z m-1221 -773 c96
-50 112 -168 32 -238 -52 -45 -138 -45 -190 0 -79 70 -65 185 30 237 26 15
100 15 128 1z"/>
</g>
</svg>
